<?xml version="1.0" encoding="utf-8"?>
<!-- Generator: Adobe Illustrator 16.0.3, SVG Export Plug-In . SVG Version: 6.00 Build 0)  -->
<!DOCTYPE svg PUBLIC "-//W3C//DTD SVG 1.1//EN" "http://www.w3.org/Graphics/SVG/1.1/DTD/svg11.dtd">
<svg version="1.1" id="Warstwa_1" xmlns="http://www.w3.org/2000/svg" xmlns:xlink="http://www.w3.org/1999/xlink" x="0px" y="0px"
	 width="70.66px" height="70.661px" viewBox="0 0 70.66 70.661" enable-background="new 0 0 70.66 70.661" xml:space="preserve">
<circle fill="#BCBEC0" cx="35.33" cy="35.332" r="35.33"/>
<circle fill="#BCBEC0" stroke="#414042" stroke-width="1.5" stroke-miterlimit="10" cx="35.278" cy="35.332" r="31.905"/>
<g>
	<path fill="#414042" d="M35.393,39.815l8.09-19.653h12.135v0.813H54.65c-0.879,0-1.582,0.154-2.111,0.462
		c-0.365,0.205-0.658,0.549-0.879,1.033c-0.16,0.352-0.242,1.268-0.242,2.748v19.653c0,1.524,0.082,2.477,0.242,2.857
		c0.162,0.381,0.492,0.715,0.99,1c0.498,0.286,1.164,0.429,2,0.429h0.967v0.813H40.055v-0.813h0.967
		c0.879,0,1.582-0.153,2.109-0.462c0.367-0.205,0.66-0.557,0.879-1.055c0.162-0.352,0.242-1.275,0.242-2.77V22.778L32.821,49.971
		h-0.527L20.687,22.976V43.97c0,1.465,0.037,2.366,0.11,2.703c0.19,0.733,0.604,1.33,1.242,1.792
		c0.638,0.462,1.638,0.692,3.001,0.692v0.813h-10.2v-0.813h0.308c0.66,0.015,1.275-0.091,1.847-0.318
		c0.571-0.228,1.003-0.531,1.297-0.912c0.293-0.382,0.52-0.916,0.682-1.605c0.029-0.161,0.044-0.908,0.044-2.242V25.218
		c0-1.509-0.081-2.451-0.242-2.825c-0.162-0.374-0.491-0.704-0.989-0.989c-0.499-0.286-1.165-0.429-2-0.429h-0.945v-0.813h12.179
		L35.393,39.815z"/>
</g>
<g>
</g>
<g>
</g>
<g>
</g>
<g>
</g>
<g>
</g>
<g>
</g>
</svg>
