<?xml version="1.0" encoding="utf-8"?>
<!-- Generator: Adobe Illustrator 16.0.3, SVG Export Plug-In . SVG Version: 6.00 Build 0)  -->
<!DOCTYPE svg PUBLIC "-//W3C//DTD SVG 1.1//EN" "http://www.w3.org/Graphics/SVG/1.1/DTD/svg11.dtd">
<svg version="1.1" id="Warstwa_1" xmlns="http://www.w3.org/2000/svg" xmlns:xlink="http://www.w3.org/1999/xlink" x="0px" y="0px"
	 width="56.502px" height="56.501px" viewBox="0 0 56.502 56.501" enable-background="new 0 0 56.502 56.501" xml:space="preserve">
<g>
	<circle fill="#A68D60" cx="28.251" cy="28.251" r="28.251"/>
	<circle fill="#A68D60" stroke="#00313C" stroke-width="1.5" stroke-miterlimit="10" cx="28.209" cy="28.251" r="25.512"/>
	<g>
		<path fill="#00313C" d="M28.303,30.837l6.469-15.715h9.703v0.65h-0.773c-0.703,0-1.266,0.123-1.688,0.369
			c-0.293,0.164-0.527,0.439-0.703,0.826c-0.129,0.281-0.193,1.014-0.193,2.197V34.88c0,1.219,0.064,1.98,0.193,2.285
			s0.393,0.571,0.791,0.8s0.932,0.343,1.6,0.343h0.773v0.65H32.03v-0.65h0.773c0.703,0,1.266-0.123,1.688-0.369
			c0.293-0.164,0.527-0.445,0.703-0.844c0.129-0.281,0.193-1.02,0.193-2.215V17.214l-9.141,21.744h-0.422l-9.281-21.586V34.16
			c0,1.172,0.029,1.893,0.088,2.162c0.152,0.586,0.483,1.063,0.993,1.433s1.31,0.554,2.399,0.554v0.65h-8.156v-0.65h0.246
			c0.527,0.012,1.02-0.073,1.477-0.255s0.803-0.425,1.037-0.729s0.416-0.732,0.545-1.283c0.023-0.129,0.035-0.727,0.035-1.793
			V19.166c0-1.207-0.064-1.96-0.193-2.259s-0.393-0.563-0.791-0.791s-0.932-0.343-1.6-0.343h-0.756v-0.65h9.738L28.303,30.837z"/>
	</g>
</g>
<g>
</g>
<g>
</g>
<g>
</g>
<g>
</g>
<g>
</g>
<g>
</g>
</svg>
